<svg width="25" height="33" viewBox="0 0 25 33" fill="none" xmlns="http://www.w3.org/2000/svg">
<path fill-rule="evenodd" clip-rule="evenodd" d="M12.5 0C19.4036 0 25 5.6012 25 12.5106C25 18.5636 20.705 23.6125 14.9988 24.7713L12.8883 27.796C12.8446 27.859 12.7864 27.9104 12.7188 27.9459C12.6512 27.9815 12.5762 28 12.5 28C12.4238 28 12.3488 27.9815 12.2812 27.9459C12.2136 27.9104 12.1555 27.859 12.1117 27.796L10.0012 24.7713C4.29498 23.6125 0 18.5636 0 12.5106C0 5.6012 5.59644 0 12.5 0Z" fill="#2DBDCB"/>
<path d="M14 31.5C14 30.6716 13.3284 30 12.5 30C11.6716 30 11 30.6716 11 31.5C11 32.3284 11.6716 33 12.5 33C13.3284 33 14 32.3284 14 31.5Z" fill="#2DBDCB"/>
</svg>
